<svg width="55" height="48" viewBox="0 0 55 48" fill="none" xmlns="http://www.w3.org/2000/svg">
<path d="M18.3465 40.9166C15.8523 43.5369 14.5096 44.142 12.3925 40.9166L12.3925 38.1473C9.7023 36.0383 8.27285 35.8004 5.95395 38.1473L5.95395 45.6244C3.97723 48.5858 2.72125 48.9915 -1.03842e-07 45.6244L-9.20922e-07 26.9318C2.5174 23.8558 3.80687 24.0824 5.95395 26.9318L5.95395 29.5626C8.27284 31.7134 9.70231 31.4962 12.3925 29.5626L12.3925 15.5777C14.5281 12.3555 15.8412 12.5153 18.3465 15.5777L18.3465 18.6239C20.6176 21.4285 21.8908 21.3601 24.162 18.6239L24.162 2.3544C26.9835 -0.819646 28.4022 -0.749761 30.6698 2.3544L30.6698 18.6239C32.8868 21.4314 34.1298 21.3574 36.3468 18.6239L36.3468 15.5777C38.9865 12.4386 40.3771 12.2438 42.6469 15.5777L42.6469 29.5626C45.1197 31.9826 46.3634 31.6288 48.4624 29.5626L48.4624 26.9318C51.0703 23.7886 52.4573 23.379 54.6933 26.9318L54.6933 45.6244C52.4519 48.8857 51.074 48.6572 48.4624 45.6244L48.4624 38.1473C46.3635 36.0815 45.1197 35.7271 42.6469 38.1473L42.6469 40.9166C40.3699 43.7637 38.9931 43.7922 36.3468 40.9166L36.3468 27.6933C34.2233 24.9799 32.9779 25.0513 30.6698 27.6933L30.6698 35.655C28.3107 38.7596 26.8903 38.8296 24.162 35.655L24.162 27.6933C21.8008 25.2626 20.5227 25.1326 18.3465 27.6933L18.3465 40.9166Z" fill="#4169E1"/>
</svg>
